<?xml version="1.0" encoding="utf-8"?>
<!-- Generator: Adobe Illustrator 16.0.0, SVG Export Plug-In . SVG Version: 6.00 Build 0)  -->
<!DOCTYPE svg PUBLIC "-//W3C//DTD SVG 1.1//EN" "http://www.w3.org/Graphics/SVG/1.1/DTD/svg11.dtd">
<svg version="1.1" id="Calque_1" xmlns="http://www.w3.org/2000/svg" xmlns:xlink="http://www.w3.org/1999/xlink" x="0px" y="0px"
	 width="134.122px" height="73.486px" viewBox="72.125 19.62 134.122 73.486" enable-background="new 72.125 19.62 134.122 73.486"
	 xml:space="preserve">
<g enable-background="new    ">
	<path fill="#394165" d="M88.165,89.295c-1.538,2.347-4.212,3.81-7.314,3.81c-2.471,0-4.54-0.858-6.229-2.598
		c-1.665-1.741-2.497-3.835-2.497-6.307c0-2.496,0.832-4.59,2.497-6.33c1.689-1.74,3.758-2.598,6.229-2.598
		c3.026,0,5.7,1.438,7.238,3.682l-3.001,2.068c-1.034-1.513-2.446-2.27-4.237-2.27c-1.438,0-2.623,0.529-3.581,1.589
		c-0.958,1.034-1.438,2.319-1.438,3.858c0,1.513,0.479,2.8,1.438,3.857c0.958,1.034,2.144,1.563,3.581,1.563
		c1.791,0,3.354-0.959,4.338-2.396L88.165,89.295z"/>
	<path fill="#394165" d="M94.397,77.896c1.715-1.739,3.809-2.623,6.252-2.623c2.472,0,4.562,0.884,6.252,2.623
		c1.713,1.74,2.57,3.833,2.57,6.306c0,2.445-0.857,4.563-2.57,6.306c-1.713,1.738-3.807,2.598-6.252,2.598
		c-2.443,0-4.537-0.857-6.252-2.598c-1.689-1.741-2.547-3.859-2.547-6.306C91.85,81.729,92.707,79.637,94.397,77.896z
		 M104.28,80.469c-0.983-1.034-2.193-1.538-3.631-1.538c-1.437,0-2.646,0.504-3.629,1.538s-1.488,2.271-1.488,3.731
		c0,1.462,0.505,2.698,1.488,3.732c0.983,1.009,2.192,1.513,3.629,1.513c1.438,0,2.647-0.504,3.631-1.537
		c1.008-1.035,1.512-2.271,1.512-3.708C105.792,82.739,105.288,81.503,104.28,80.469z"/>
	<path fill="#394165" d="M114.643,92.852V75.476h6.805c2.447,0,4.363,0.832,5.75,2.473c1.388,1.639,2.094,3.707,2.094,6.254
		c0,2.546-0.706,4.613-2.094,6.229c-1.387,1.612-3.303,2.421-5.75,2.421H114.643z M118.321,78.829v10.669h3.127
		c1.334,0,2.344-0.504,3.076-1.514c0.731-1.009,1.084-2.271,1.084-3.782c0-1.539-0.354-2.801-1.084-3.834
		c-0.731-1.035-1.742-1.539-3.076-1.539H118.321z"/>
	<path fill="#394165" d="M141.701,92.852h-3.759v-7.868l-6.709-9.508h4.391l4.185,6.507l4.236-6.507h4.389l-6.732,9.559V92.852
		L141.701,92.852z"/>
	<path fill="#394165" d="M165.105,86.42l3.406-10.945h4.01l-5.902,17.376h-2.9l-2.445-9.129l-2.396,9.129h-2.924L150.1,75.475h3.986
		l3.379,10.945l2.32-8.499h3.025L165.105,86.42z"/>
	<path fill="#394165" d="M176.609,92.852V75.476h10.996v3.253h-7.314v3.96h6.406v3.202h-6.406v3.707h7.543v3.254H176.609z"/>
	<path fill="#394165" d="M202.967,83.571c1.059,0.277,1.867,0.807,2.422,1.589c0.58,0.781,0.857,1.562,0.857,2.371
		c0,1.486-0.506,2.748-1.514,3.782c-1.01,1.033-2.348,1.538-4.035,1.538h-7.465V75.476h6.961c3.125,0,5.145,1.891,5.145,4.842
		C205.338,81.628,204.605,82.939,202.967,83.571z M196.939,82.335h2.9c0.932,0,1.613-0.756,1.613-1.791
		c0-1.109-0.557-1.815-1.641-1.815h-2.875v3.606H196.939z M196.939,85.387v4.211h3.557c1.186,0,1.863-1.01,1.863-2.145
		c0-1.084-0.729-2.066-1.939-2.066H196.939z"/>
</g>
<g>
	<path fill="#36FCE5" d="M150.968,42.062l-3.39,5.566l7.621,12.908c0.42,0.709,0.088,1.291-0.737,1.291h0.019
		c0.826,0,1.848-0.58,2.271-1.287l2.812-4.694l-8.361-14.091C151.113,41.854,151.033,41.957,150.968,42.062z"/>
	<path fill="#36FCE5" d="M167.841,40.563l0.366,0.619C168.222,40.904,168.094,40.685,167.841,40.563z"/>
	<path fill="#9663E3" d="M120.534,45.418c-3.836,5.966-11.396,9.246-19.277,7.58c0,0-1.208-0.16-0.992-1.041
		c0.195-0.795,1.204-3.373,1.204-3.373c0.512-1.069,0.919-0.773,1.556-0.732c0.641,0.139,3.911,0.447,5.192,0.08
		c-0.856,0.05-4.271-1.463-5.238-2.846c-3.415-4.873-2.213-11.596,2.668-15.002c1.503-1.051,3.18-1.656,4.881-1.855
		c1.144-0.05,0.934-1.138,0.739-1.427c-2.184-3.714-3.742-6.367-3.835-6.541c-0.33-0.611-1.22-0.63-1.378-0.611
		c-2.638,0.327-4.779,1.083-7.251,2.439c-10.484,5.745-14.324,18.9-8.579,29.383c5.746,10.481,18.9,14.321,29.383,8.577
		c2.855-1.564,6.577-5.281,6.716-5.877c0.794-0.84,0.042-1.746,0.042-1.746s-1.563-2.684-4.105-6.963
		C121.826,44.742,120.911,44.832,120.534,45.418z"/>
	<path fill="#36FCE5" d="M191.783,39.297l-11.129-18.135c-0.432-0.703-1.459-1.279-2.283-1.279h-14.168
		c-0.826,0-1.148,0.577-0.719,1.282l11.254,18.484c0.43,0.705,0.43,1.857,0,2.561l-3.008,4.939l7.992,13.533
		c0.146,0.249,0.197,0.48,0.17,0.678c0.26-0.195,0.482-0.424,0.628-0.672l11.275-18.824C192.222,41.156,192.215,40,191.783,39.297z"
		/>
	<path fill="#36FCE5" d="M164.203,61.976h0.498c-0.433,0-0.916-0.163-1.342-0.417C163.479,61.813,163.769,61.976,164.203,61.976z"/>
	<path fill="#9663E3" d="M179.722,60.683l-7.992-13.533l-3.524-5.967l-0.364-0.618L156.32,21.058
		c-0.418-0.712-1.437-1.293-2.263-1.293h-14.399c-0.828,0-1.158,0.581-0.735,1.292l12.28,20.7l8.361,14.091l2.871,4.839
		c0.2,0.338,0.538,0.642,0.924,0.873c0.426,0.254,0.909,0.415,1.342,0.415h13.551h0.732c0.536,0,0.86-0.247,0.908-0.615
		C179.918,61.162,179.869,60.932,179.722,60.683z"/>
	<path fill="#9663E3" d="M155.201,60.537l-7.623-12.904l-15.779-26.72c-0.419-0.712-1.437-1.293-2.262-1.293h-14.401
		c-0.826,0-1.156,0.581-0.735,1.291l23.513,39.63c0.421,0.709,1.441,1.289,2.266,1.289h0.254h14.029
		C155.287,61.83,155.619,61.246,155.201,60.537z"/>
</g>
</svg>
